<?xml version="1.0" standalone="no"?>
<!DOCTYPE svg PUBLIC "-//W3C//DTD SVG 20010904//EN"
 "http://www.w3.org/TR/2001/REC-SVG-20010904/DTD/svg10.dtd">
<svg version="1.0" xmlns="http://www.w3.org/2000/svg"
 width="512.000000pt" height="512.000000pt" viewBox="0 0 512.000000 512.000000"
 preserveAspectRatio="xMidYMid meet">

<g transform="translate(0.000000,512.000000) scale(0.100000,-0.100000)"
fill="#000000" stroke="none">
<path d="M940 3619 c-429 -49 -793 -369 -907 -797 -23 -86 -26 -116 -26 -262
0 -146 3 -176 26 -262 99 -370 378 -657 744 -763 124 -36 273 -49 395 -35 452
52 804 353 926 790 24 86 27 111 27 270 0 159 -3 184 -27 270 -121 432 -471
735 -913 789 -101 12 -137 12 -245 0z"/>
<path d="M3925 3619 c-106 -14 -240 -54 -342 -104 -277 -136 -475 -378 -561
-685 -24 -86 -27 -111 -27 -270 0 -159 3 -184 27 -270 122 -437 474 -738 926
-790 123 -15 271 -1 398 36 363 105 643 392 741 762 23 86 26 116 26 262 0
146 -3 176 -26 262 -116 435 -478 748 -920 797 -108 12 -142 12 -242 0z"/>
</g>
</svg>
