<?xml version="1.0" standalone="no"?>
<!DOCTYPE svg PUBLIC "-//W3C//DTD SVG 20010904//EN"
 "http://www.w3.org/TR/2001/REC-SVG-20010904/DTD/svg10.dtd">
<svg version="1.0" xmlns="http://www.w3.org/2000/svg"
 width="512.000000pt" height="512.000000pt" viewBox="0 0 512.000000 512.000000"
 preserveAspectRatio="xMidYMid meet">

<g transform="translate(0.000000,512.000000) scale(0.100000,-0.100000)"
fill="#000000" stroke="none">
<path d="M4065 5110 c-209 -42 -376 -207 -420 -417 -18 -86 -18 -130 0 -218
55 -261 295 -441 563 -422 276 19 491 250 492 527 0 146 -47 264 -146 370
-126 134 -314 195 -489 160z m209 -125 c116 -30 213 -111 269 -224 30 -62 32
-72 32 -176 0 -103 -2 -114 -32 -178 -40 -84 -111 -155 -199 -198 -125 -62
-293 -49 -409 31 -132 91 -205 260 -177 410 45 246 277 397 516 335z"/>
<path d="M1650 3976 c-87 -19 -142 -40 -218 -82 -76 -43 -190 -148 -234 -215
l-31 -48 -451 -3 -451 -3 -57 -27 c-73 -34 -137 -98 -174 -174 -26 -52 -29
-70 -29 -149 0 -76 4 -99 27 -147 34 -73 103 -142 176 -176 l57 -27 450 -3
450 -3 34 -50 c50 -74 170 -181 248 -221 257 -135 547 -110 780 66 59 45 125
118 161 178 l16 28 1226 2 1225 3 57 27 c73 34 142 103 176 176 23 49 27 70
27 147 -1 79 -4 98 -29 149 -37 76 -101 140 -174 174 l-57 27 -1225 3 -1226 2
-18 30 c-76 129 -236 249 -401 300 -90 27 -246 35 -335 16z m310 -134 c173
-61 297 -169 366 -320 120 -263 33 -575 -206 -737 -91 -62 -188 -95 -297 -102
-110 -8 -189 9 -298 62 -170 83 -281 227 -320 412 -42 196 17 388 164 533 129
129 268 184 441 176 58 -3 117 -12 150 -24z m-855 -349 c-13 -33 -34 -168 -34
-218 0 -50 21 -185 34 -217 7 -17 -16 -18 -399 -18 -319 0 -414 3 -439 13 -52
22 -98 68 -123 122 -55 118 -9 251 108 309 l52 26 404 0 c381 0 404 -1 397
-17z m3761 -7 c183 -85 174 -353 -13 -431 -30 -13 -202 -15 -1213 -15 l-1178
0 16 58 c22 78 22 276 0 355 l-16 57 1176 0 1177 0 51 -24z"/>
<path d="M3168 2065 c-157 -39 -310 -140 -406 -270 l-44 -60 -1217 -5 -1216
-5 -57 -23 c-80 -32 -150 -99 -190 -180 -30 -59 -33 -76 -33 -152 0 -72 4 -94
29 -147 35 -76 104 -144 184 -181 l57 -27 1221 -5 1222 -5 44 -60 c134 -182
341 -285 573 -285 167 0 295 42 432 143 56 42 149 141 173 187 10 18 29 19
458 22 l447 3 57 27 c80 37 149 105 184 181 25 53 29 75 29 147 0 76 -3 93
-33 152 -40 81 -110 148 -190 180 -56 23 -64 23 -498 26 l-441 3 -48 66 c-92
125 -251 229 -406 267 -80 20 -251 20 -331 1z m316 -121 c211 -54 386 -237
431 -451 65 -307 -121 -609 -430 -698 -78 -23 -221 -23 -300 -1 -108 31 -185
76 -266 156 -117 116 -179 260 -179 420 0 264 186 506 443 575 71 19 225 19
301 -1z m-829 -351 c-44 -111 -44 -335 0 -446 7 -16 -48 -17 -1176 -15 l-1184
3 -41 22 c-197 105 -169 378 46 444 14 4 551 8 1194 8 1109 1 1168 0 1161 -16z
m2211 -10 c108 -58 156 -168 123 -288 -16 -57 -101 -138 -161 -153 -32 -8
-172 -12 -433 -12 -363 0 -386 1 -381 18 25 87 30 122 30 222 0 100 -5 135
-30 223 -5 17 14 18 403 15 397 -3 409 -4 449 -25z"/>
<path d="M936 686 c-152 -64 -238 -216 -215 -381 28 -208 243 -349 443 -291
310 90 358 501 76 655 -58 32 -73 36 -155 38 -78 3 -98 0 -149 -21z m230 -111
c50 -20 100 -71 124 -127 62 -145 -33 -306 -190 -325 -161 -19 -295 127 -260
284 15 66 51 117 106 149 73 43 145 49 220 19z"/>
</g>
</svg>
