<?xml version="1.0" standalone="no"?>
<!DOCTYPE svg PUBLIC "-//W3C//DTD SVG 20010904//EN"
 "http://www.w3.org/TR/2001/REC-SVG-20010904/DTD/svg10.dtd">
<svg version="1.0" xmlns="http://www.w3.org/2000/svg"
 width="512.000000pt" height="512.000000pt" viewBox="0 0 512.000000 512.000000"
 preserveAspectRatio="xMidYMid meet">

<g transform="translate(0.000000,512.000000) scale(0.100000,-0.100000)"
fill="#000000" stroke="none">
<path d="M1799 4097 c-52 -20 -80 -41 -111 -88 -50 -75 -46 -169 9 -242 16
-19 301 -298 636 -618 334 -321 607 -586 607 -589 0 -3 -271 -266 -602 -584
-332 -317 -618 -595 -635 -617 -62 -76 -67 -170 -13 -251 60 -91 186 -122 277
-68 22 14 360 332 750 707 545 524 714 692 729 725 24 53 24 130 0 180 -21 43
-1413 1388 -1476 1426 -47 28 -123 37 -171 19z"/>
</g>
</svg>
