<?xml version="1.0" standalone="no"?>
<!DOCTYPE svg PUBLIC "-//W3C//DTD SVG 20010904//EN"
 "http://www.w3.org/TR/2001/REC-SVG-20010904/DTD/svg10.dtd">
<svg version="1.0" xmlns="http://www.w3.org/2000/svg"
 width="512.000000pt" height="512.000000pt" viewBox="0 0 512.000000 512.000000"
 preserveAspectRatio="xMidYMid meet">

<g transform="translate(0.000000,512.000000) scale(0.100000,-0.100000)"
fill="#000000" stroke="none">
<path d="M1925 5114 c-546 -53 -964 -242 -1320 -599 -324 -324 -517 -717 -586
-1190 -19 -127 -16 -443 5 -574 69 -434 255 -811 552 -1121 389 -405 916 -629
1481 -630 491 0 944 160 1316 468 l79 65 99 -99 99 -98 -144 -146 c-89 -90
-146 -156 -150 -173 -4 -17 -1 -40 9 -61 9 -18 199 -215 423 -438 446 -444
465 -459 617 -498 99 -25 181 -25 279 0 107 27 190 74 266 150 76 76 123 159
150 266 25 98 25 180 0 279 -39 152 -54 171 -498 617 -223 224 -420 414 -438
423 -21 10 -44 13 -61 9 -17 -4 -83 -61 -173 -150 l-146 -144 -98 99 -98 99
64 78 c256 311 413 686 459 1096 15 135 7 429 -16 553 -81 448 -269 811 -579
1121 -317 316 -706 513 -1146 579 -102 15 -367 27 -445 19z m387 -210 c494
-68 934 -325 1236 -721 186 -245 309 -537 357 -853 20 -127 23 -399 5 -520
-59 -411 -242 -780 -531 -1069 -289 -289 -658 -472 -1069 -531 -121 -18 -393
-15 -520 5 -531 82 -988 372 -1282 815 -324 489 -397 1100 -197 1666 177 503
610 936 1113 1113 285 101 603 135 888 95z m2533 -4107 c112 -149 98 -355 -35
-487 -118 -119 -302 -145 -450 -62 -27 15 -192 171 -408 386 l-362 361 267
267 268 268 339 -337 c186 -186 358 -364 381 -396z"/>
<path d="M1840 4625 c-239 -36 -455 -117 -645 -243 -636 -421 -884 -1222 -596
-1927 188 -459 587 -806 1071 -930 239 -61 512 -63 765 -5 564 130 1033 599
1165 1165 43 185 55 423 30 592 -117 791 -786 1369 -1577 1362 -71 -1 -166 -7
-213 -14z m510 -210 c548 -122 971 -555 1073 -1100 59 -309 4 -659 -146 -925
-124 -222 -325 -423 -547 -547 -379 -213 -885 -225 -1275 -31 -387 193 -660
544 -752 968 -26 121 -26 441 0 555 65 286 182 502 381 701 223 222 449 335
796 398 60 11 397 -3 470 -19z"/>
<path d="M1925 4164 c-241 -37 -462 -141 -620 -293 -49 -47 -55 -58 -55 -93 0
-53 43 -98 93 -98 28 0 52 14 127 75 189 151 366 215 597 215 121 0 228 -20
331 -61 93 -37 121 -37 161 0 24 22 31 38 31 65 0 70 -80 119 -271 166 -82 21
-321 35 -394 24z"/>
<path d="M2743 3865 c-55 -23 -77 -78 -52 -128 41 -79 152 -74 179 8 9 26 8
41 -3 68 -16 38 -24 45 -66 57 -17 5 -39 3 -58 -5z"/>
</g>
</svg>
